# AST/ASF file generated using VICON BodyLanguage
# -----------------------------------------------
:version 1.10
:name VICON
:units
  mass 1.0
  length 0.45
  angle deg
:documentation
   .ast/.asf automatically generated from VICON data using
   VICON BodyBuilder and BodyLanguage model FoxedUp or BRILLIANT.MOD
:root
   order TX TY TZ RX RY RZ
   axis XYZ
   position 0 0 0  
   orientation 0 0 0 
:bonedata
  begin
     id 1 
     name lhipjoint
     direction 0.63403 -0.759788 0.143974 
     length 2.51904 
     axis 0 0 0  XYZ
  end
  begin
     id 2 
     name lfemur
     direction 0.34202 -0.939693 0  
     length 7.42313  
     axis 0 0 20  XYZ
    dof rx ry rz
    limits (-160.0 20.0)
           (-70.0 70.0)
           (-60.0 70.0)
  end
  begin
     id 3 
     name ltibia
     direction 0.34202 -0.939693 0   
     length 8.10141   
     axis 0 0 20   XYZ
    dof rx
    limits (-10.0 170.0)
  end
  begin
     id 4 
     name lfoot
     direction 0.0927455 -0.254816 0.962532   
     length 2.14078   
     axis -90 7.62852e-016 20   XYZ
    dof rx rz
    limits (-45.0 90.0)
           (-70.0 20.0)
  end
  begin
     id 5 
     name ltoes
     direction 1.53556e-011 -4.21949e-011 1   
     length 1.07182   
     axis -90 7.62852e-016 20   XYZ
    dof rx
    limits (-90.0 20.0)
  end
  begin
     id 6 
     name rhipjoint
     direction -0.659892 -0.738223 0.139888   
     length 2.59263  
     axis 0 0 0  XYZ 
  end
  begin
     id 7 
     name rfemur
     direction -0.34202 -0.939693 0   
     length 7.58575   
     axis 0 0 -20   XYZ
    dof rx ry rz
    limits (-160.0 20.0)
           (-70.0 70.0)
           (-70.0 60.0)
  end
  begin
     id 8 
     name rtibia
     direction -0.34202 -0.939693 0   
     length 8.19358   
     axis 0 0 -20   XYZ
    dof rx
    limits (-10.0 170.0)
 end
 begin
     id 9 
     name rfoot
     direction -0.0856543 -0.235333 0.968133   
     length 2.13415  
     axis -90 -7.62852e-016 -20   XYZ
    dof rx rz
    limits (-45.0 90.0)
           (-20.0 70.0)
  end
  begin
     id 10 
     name rtoes
     direction -1.53551e-011 -4.21811e-011 1   
     length 1.07055   
     axis -90 -7.62852e-016 -20   XYZ
    dof rx
    limits (-90.0 20.0)
  end
  begin
     id 11 
     name lowerback
     direction 0.025219 0.998394 -0.0507326   
     length 1.91844   
     axis 0 0 0   XYZ
    dof rx ry rz
    limits (-20.0 45.0)
           (-30.0 30.0)
           (-30.0 30.0)
  end
  begin
     id 12 
     name upperback
     direction 0.0213103 0.99967 -0.0143101   
     length 1.92246   
     axis 0 0 0   XYZ
    dof rx ry rz
    limits (-20.0 45.0)
           (-30.0 30.0)
           (-30.0 30.0)
  end
  begin
     id 13 
     name thorax
     direction 0.00920974 0.99991 0.00971518   
     length 1.92239   
     axis 0 0 0   XYZ
    dof rx ry rz
    limits (-20.0 45.0)
           (-30.0 30.0)
           (-30.0 30.0)
  end
  begin
     id 14 
     name lowerneck
     direction 0.0598257 0.997249 0.0437612   
     length 3.13679   
     axis 0 0 0   XYZ
    dof rx ry rz
    limits (-20.0 45.0)
           (-30.0 30.0)
           (-30.0 30.0)
  end
  begin
     id 15 
     name upperneck
     direction -0.035342 0.999338 0.00863891   
     length 3.16283   
     axis 0 0 0   XYZ
    dof rx ry rz
    limits (-20.0 45.0)
           (-30.0 30.0)
           (-30.0 30.0)
  end
  begin
     id 16
     name head
     direction 0.37144 0.811566 0.450991  
     length 1.2838  
     axis 0 0 0   XYZ
    dof rx ry rz
    limits (-20.0 45.0)
           (-30.0 30.0)
           (-30.0 30.0)
  end
  begin
     id 17 
     name lclavicle
     direction 0.961094 0.274654 -0.0293862  
     length 3.63466  
     axis 0 0 0   XYZ
    dof ry rz
    limits (-20.0 10.0)
           (0.0 20.0)
  end
  begin
     id 18 
     name lhumerus
     direction 1 -4.48963e-011 1.10303e-027   
     length 5.12842   
     axis 180 -30 -90   XYZ
    dof rx ry rz
    limits (-60.0 90.0)
           (-90.0 90.0)
           (-90.0 90.0)
  end
  begin
     id 19
     name lradius
     direction 1 -4.48968e-011 4.13199e-027   
     length 3.47396   
     axis 180 -30 -90   XYZ
    dof rx
    limits (-10.0 170.0)
  end
  begin
     id 20
     name lwrist
     direction 1 -4.48948e-011 9.12708e-027   
     length 1.73698   
     axis -6.84618e-015 90 90   XYZ
    dof ry
    limits (-180.0 0.0)
 end
  begin
     id 21 
     name lhand
     direction 1 -4.49057e-011 1.82749e-026   
     length 0.728607   
     axis -1.16502e-014 90 90   XYZ
    dof rx rz
    limits (-90.0 90.0)
           (-45.0 45.0)
  end
  begin
     id 22 
     name lfingers
     direction 1 -4.48912e-011 3.64949e-026   
     length 0.587422   
     axis -2.33008e-014 90 90   XYZ
    dof rx
    limits (0.0 90.0)
  end
  begin
     id 23
     name lthumb
     direction 0.707107 -6.34995e-011 0.707107   
     length 0.843424   
     axis -90 45 5.69224e-014   XYZ
    dof rx rz
    limits (-45.0 45.0)
           (-45.0 45.0)
  end
  begin
     id 24 
     name rclavicle
     direction -0.90514 0.421881 -0.0523369   
     length 3.57139  
     axis 0 0 0   XYZ 
    dof ry rz
    limits (-10.0 20.0)
           (-20.0 0.0)
  end
  begin
     id 25 
     name rhumerus
     direction -1 -4.48954e-011 -1.76662e-027  
     length 5.48477   
     axis 180 30 90   XYZ
    dof rx ry rz
    limits (-90.0 60.0)
           (-90.0 90.0)
           (-90.0 90.0)
  end
  begin
     id 26 
     name rradius
     direction -1 -4.48982e-011 1.26841e-027   
     length 3.47856   
     axis 180 30 90   XYZ
    dof rx
    limits (-10.0 170.0)
  end
  begin
     id 27 
     name rwrist
     direction -1 -4.49037e-011 9.13554e-027   
     length 1.73928   
     axis -6.84618e-015 -90 -90   XYZ
    dof ry
    limits (-180.0 0.0)
  end
  begin
     id 28
     name rhand
     direction -1 -4.48871e-011 1.82397e-026   
     length 0.709974   
     axis -1.16502e-014 -90 -90   XYZ
    dof rx rz
    limits (-90.0 90.0)
           (-45.0 45.0)
  end
  begin
     id 29
     name rfingers
     direction -1 -4.48994e-011 3.65258e-026   
     length 0.572399   
     axis -2.33008e-014 -90 -90   XYZ
    dof rx
    limits (0.0 90.0)
  end
  begin
     id 30
     name rthumb
     direction -0.707107 -6.34861e-011 0.707107   
     length 0.821855   
     axis -90 -45 -5.69224e-014   XYZ
    dof rx rz
    limits (-45.0 45.0)
           (-45.0 45.0)
  end
:hierarchy
  begin
    root lhipjoint rhipjoint lowerback
    lhipjoint lfemur
    lfemur ltibia
    ltibia lfoot
    lfoot ltoes
    rhipjoint rfemur
    rfemur rtibia
    rtibia rfoot
    rfoot rtoes
    lowerback upperback
    upperback thorax
    thorax lowerneck lclavicle rclavicle
    lowerneck upperneck
    upperneck head
    lclavicle lhumerus
    lhumerus lradius
    lradius lwrist
    lwrist lhand lthumb
    lhand lfingers
    rclavicle rhumerus
    rhumerus rradius
    rradius rwrist
    rwrist rhand rthumb
    rhand rfingers
  end

#!OML:ASF F:\VICON\USERDATA\INSTALL\Justin1\Justin1.ASF
:FULLY-SPECIFIED
:DEGREES
4250
root 16.1554 18.0938 -7.43328 7.11411 0.421407 -2.25863
lowerback 8.47209 -1.6957 2.0384
upperback 0.0469929 -1.82885 4.7792
thorax -4.61671 -0.898881 4.0688
lowerneck -13.8895 -0.478917 -1.23873
upperneck 35.3814 1.96635 -6.51104
head 14.615 -0.222106 -2.15161
rclavicle 2.0276e-014 -4.77083e-015
rhumerus -32.6681 -19.8551 -72.3538
rradius 33.375
rwrist -8.67696
rhand -28.3229 15.6722
rfingers 7.12502
rthumb -1.69777 -14.3008
lclavicle 2.0276e-014 -4.77083e-015
lhumerus -30.1647 16.0747 79.5504
lradius 40.3746
lwrist -5.73477
lhand -12.0897 30.6935
lfingers 7.12502
lthumb 13.9706 60.2041
rfemur -38.9697 2.62585 24.2286
rtibia 37.6405
rfoot -1.57812 -4.88022
rtoes 31.087
lfemur -11.9467 -5.69184 -21.1188
ltibia 32.9999
lfoot -20.1043 1.81054
ltoes -1.22885
4251
root 16.1668 18.103 -7.53373 7.07511 0.152106 -2.31512
lowerback 8.57866 -1.58534 1.96805
upperback 0.135233 -1.69482 4.63127
thorax -4.59354 -0.832941 3.93735
lowerneck -13.4388 -0.294618 -1.18641
upperneck 35.6949 2.24007 -6.53905
head 14.6708 -0.0999103 -2.13614
rclavicle -1.59028e-014 5.1684e-014
rhumerus -32.8656 -19.2687 -72.7905
rradius 33.5818
rwrist -8.79523
rhand -28.1707 16.1406
rfingers 7.12502
rthumb -1.55078 -13.8335
lclavicle -1.59028e-014 5.1684e-014
lhumerus -30.1229 16.0004 79.3846
lradius 40.7967
lwrist -5.54923
lhand -11.8955 30.9582
lfingers 7.12502
lthumb 14.1577 60.4558
rfemur -39.2114 2.68899 24.2312
rtibia 37.8499
rfoot -2.38057 -4.06364
rtoes 29.4539
lfemur -12.2249 -5.59246 -21.1192
ltibia 32.9769
lfoot -19.9362 2.00305
ltoes -0.87897
4252
root 16.1783 18.1115 -7.62926 7.01437 -0.108945 -2.18078
lowerback 8.66061 -1.49451 1.66833
upperback 0.222722 -1.61072 4.49243
thorax -4.54766 -0.786939 3.95028
lowerneck -13.2049 -0.165547 -1.16426
upperneck 36.243 2.54855 -6.79368
head 14.8986 -0.00610992 -2.2174
rclavicle 1.88845e-014 0
rhumerus -32.9568 -18.6424 -73.1535
rradius 33.6937
rwrist -8.7817
rhand -28.0295 16.5431
rfingers 7.12502
rthumb -1.41444 -13.432
lclavicle 1.88845e-014 0
lhumerus -30.1317 16.0404 79.2882
lradius 41.1825
lwrist -5.44072
lhand -11.5908 30.986
lfingers 7.12502
lthumb 14.4513 60.4628
rfemur -39.4359 2.777 24.0144
rtibia 38.1717
rfoot -3.38711 -3.28327
rtoes 28.0683
lfemur -12.4712 -5.57513 -21.3446
ltibia 32.9973
lfoot -19.8217 2.2986
ltoes -0.605844
4253
root 16.1852 18.1138 -7.72638 6.98578 -0.479237 -1.9803
lowerback 8.74799 -1.34734 1.22094
upperback 0.309948 -1.46679 4.34626
thorax -4.50543 -0.708503 4.0321
lowerneck -13.0273 -0.0514107 -1.22377
upperneck 36.7651 2.82838 -6.95306
head 15.1284 0.0760866 -2.24953
rclavicle 4.77083e-015 -6.36111e-014
rhumerus -33.077 -18.0846 -73.5047
rradius 33.9348
rwrist -8.7685
rhand -27.9718 16.3932
rfingers 7.12502
rthumb -1.35865 -13.5822
lclavicle 4.77083e-015 -6.36111e-014
lhumerus -30.0432 16.1167 79.2113
lradius 41.3682
lwrist -5.32621
lhand -11.5431 30.5979
lfingers 7.12502
lthumb 14.4973 60.0714
rfemur -39.7147 2.91642 23.7606
rtibia 38.5937
rfoot -4.42259 -2.54614
rtoes 27.1831
lfemur -12.7656 -5.53409 -21.6401
ltibia 33.0164
lfoot -19.6621 2.64695
ltoes -0.429985
4254
root 16.1902 18.119 -7.82117 6.86223 -0.856571 -2.06628
lowerback 8.9638 -1.20314 1.07215
upperback 0.440536 -1.29203 4.24253
thorax -4.49927 -0.620689 3.98904
lowerneck -12.8436 0.119795 -1.24985
upperneck 37.135 3.13213 -6.99515
head 15.2834 0.191469 -2.22789
rclavicle 5.76476e-015 -5.56597e-015
rhumerus -33.1122 -17.6831 -73.8766
rradius 33.9984
rwrist -8.44787
rhand -27.9925 16.4589
rfingers 7.12502
rthumb -1.37863 -13.5163
lclavicle 5.76476e-015 -5.56597e-015
lhumerus -29.8904 16.1668 79.082
lradius 41.4607
lwrist -5.20853
lhand -11.6661 30.3946
lfingers 7.12502
lthumb 14.3788 59.8766
rfemur -39.8271 3.05121 23.8693
rtibia 39.1234
rfoot -5.46175 -1.85017
rtoes 27.6617
lfemur -12.9361 -5.44102 -21.6188
ltibia 33.024
lfoot -19.4803 2.94448
ltoes -0.238917
4255
root 16.1983 18.1354 -7.90908 6.71374 -1.05349 -2.26718
lowerback 9.10717 -1.1282 1.15248
upperback 0.610306 -1.1894 4.16351
thorax -4.41154 -0.573884 3.84739
lowerneck -12.6669 0.308623 -1.22631
upperneck 37.3989 3.48027 -7.13662
head 15.3957 0.32118 -2.24633
rclavicle 1.11319e-014 2.14687e-014
rhumerus -32.9997 -17.3819 -74.2287
rradius 33.8557
rwrist -7.80568
rhand -28.2017 16.6641
rfingers 7.12502
rthumb -1.58067 -13.3098
lclavicle 1.11319e-014 2.14687e-014
lhumerus -29.7532 16.2093 78.9789
lradius 41.6248
lwrist -5.1775
lhand -11.7629 30.4529
lfingers 7.12502
lthumb 14.2855 59.9416
rfemur -39.8527 3.0901 24.1005
rtibia 39.7483
rfoot -6.81076 -1.39538
rtoes 27.4555
lfemur -13.0616 -5.36374 -21.4613
ltibia 33.0498
lfoot -19.2995 3.14425
ltoes -0.336015
4256
root 16.2083 18.1518 -7.99643 6.67969 -1.19409 -2.26654
lowerback 9.12435 -1.07113 1.09798
upperback 0.679091 -1.12776 4.02083
thorax -4.35439 -0.544367 3.7189
lowerneck -12.2172 0.475273 -1.23892
upperneck 37.5511 3.77928 -7.26452
head 15.3848 0.434652 -2.25459
rclavicle -9.93923e-016 2.3059e-014
rhumerus -33.0745 -17.0449 -74.5415
rradius 33.8629
rwrist -7.27194
rhand -28.3322 16.6381
rfingers 7.12502
rthumb -1.70678 -13.3349
lclavicle -9.93923e-016 2.3059e-014
lhumerus -29.7597 16.2914 78.8087
lradius 41.6914
lwrist -5.27274
lhand -11.7801 30.5573
lfingers 7.12502
lthumb 14.2689 60.047
rfemur -39.9862 2.99051 24.1394
rtibia 40.4633
rfoot -8.12188 -1.1745
rtoes 25.9878
lfemur -13.326 -5.32834 -21.5083
ltibia 33.0772
lfoot -19.0636 3.26689
ltoes -0.187156
4257
root 16.2122 18.1615 -8.08924 6.67356 -1.4517 -2.25223
lowerback 9.20501 -1.00247 0.924485
upperback 0.709409 -1.05918 3.87976
thorax -4.37093 -0.508417 3.66162
lowerneck -11.7052 0.639154 -1.28496
upperneck 37.7153 4.03518 -7.27813
head 15.3582 0.540779 -2.21605
rclavicle 1.66979e-014 -2.46493e-014
rhumerus -33.1724 -16.4908 -74.9501
rradius 33.972
rwrist -7.04128
rhand -28.3426 16.5794
rfingers 7.12502
rthumb -1.71683 -13.3935
lclavicle 1.66979e-014 -2.46493e-014
lhumerus -29.8194 16.5493 78.5254
lradius 41.6652
lwrist -5.3611
lhand -11.7394 30.3508
lfingers 7.12502
lthumb 14.3082 59.8379
rfemur -40.1944 2.85164 24.2705
rtibia 41.3204
rfoot -8.6878 -1.2274
rtoes 23.7296
lfemur -13.6876 -5.24518 -21.5442
ltibia 33.1606
lfoot -18.7731 3.41295
ltoes 0.206019
4258
root 16.2136 18.1748 -8.18089 6.67138 -1.68007 -2.29369
lowerback 9.2116 -0.959075 0.767678
upperback 0.814775 -1.02623 3.7742
thorax -4.2654 -0.491652 3.63293
lowerneck -11.3356 0.834923 -1.28163
upperneck 37.911 4.34584 -7.32276
head 15.3867 0.669171 -2.19389
rclavicle -1.98785e-016 -4.77083e-015
rhumerus -33.0969 -15.7705 -75.4344
rradius 34.0675
rwrist -7.13546
rhand -28.3737 16.6339
rfingers 7.12502
rthumb -1.74687 -13.3387
lclavicle -1.98785e-016 -4.77083e-015
lhumerus -29.8082 16.8703 78.2623
lradius 41.6753
lwrist -5.43856
lhand -11.7096 30.0265
lfingers 7.12502
lthumb 14.3368 59.5114
rfemur -40.4692 2.60482 24.543
rtibia 42.2837
rfoot -8.93866 -1.67127
rtoes 20.653
lfemur -14.0904 -5.19421 -21.4965
ltibia 33.3015
lfoot -18.4914 3.5512
ltoes 0.35649
4259
root 16.216 18.1723 -8.26955 6.70667 -1.77013 -2.20553
lowerback 9.02134 -0.943213 0.563157
upperback 0.957997 -1.04323 3.61987
thorax -4.00768 -0.500903 3.58021
lowerneck -11.0288 1.05893 -1.16226
upperneck 38.1078 4.72457 -7.50277
head 15.4436 0.824489 -2.24112
rclavicle -2.84262e-014 6.36111e-015
rhumerus -32.9579 -15.3501 -75.8052
rradius 34.05
rwrist -7.12747
rhand -28.2116 16.7122
rfingers 7.12502
rthumb -1.5903 -13.2616
lclavicle -2.84262e-014 6.36111e-015
lhumerus -29.8064 17.093 78.0338
lradius 41.72
lwrist -5.45351
lhand -11.6791 30.0992
lfingers 7.12502
lthumb 14.3663 59.5821
rfemur -40.5891 2.3924 24.5704
rtibia 43.3233
rfoot -9.53244 -2.1152
rtoes 21.2093
lfemur -14.5572 -5.26285 -21.5749
ltibia 33.478
lfoot -18.2607 3.59518
ltoes 0.190774
